<svg width="22" height="16" viewBox="0 0 22 16" fill="none" xmlns="http://www.w3.org/2000/svg">
<g clip-path="url(#clip0_229_12538)">
<mask id="mask0_229_12538" style="mask-type:alpha" maskUnits="userSpaceOnUse" x="0" y="0" width="22" height="16">
<path d="M2.33337 1H19.3334C20.1618 1 20.8334 1.67157 20.8334 2.5V13.5C20.8334 14.3284 20.1618 15 19.3334 15H2.33337C1.50495 15 0.833374 14.3284 0.833374 13.5V2.5C0.833374 1.67157 1.50495 1 2.33337 1Z" fill="white" stroke="#555555"/>
</mask>
<g mask="url(#mask0_229_12538)">
<path d="M19.3334 0.5H2.33337C1.2288 0.5 0.333374 1.39543 0.333374 2.5V13.5C0.333374 14.6046 1.2288 15.5 2.33337 15.5H19.3334C20.4379 15.5 21.3334 14.6046 21.3334 13.5V2.5C21.3334 1.39543 20.4379 0.5 19.3334 0.5Z" fill="#006B4D"/>
<path d="M9.83337 12.5C12.3187 12.5 14.3334 10.4853 14.3334 8C14.3334 5.51472 12.3187 3.5 9.83337 3.5C7.34809 3.5 5.33337 5.51472 5.33337 8C5.33337 10.4853 7.34809 12.5 9.83337 12.5Z" fill="#F7253B"/>
<path d="M19.3334 1H2.33337C1.50495 1 0.833374 1.67157 0.833374 2.5V13.5C0.833374 14.3284 1.50495 15 2.33337 15H19.3334C20.1618 15 20.8334 14.3284 20.8334 13.5V2.5C20.8334 1.67157 20.1618 1 19.3334 1Z" stroke="black" stroke-opacity="0.1"/>
</g>
</g>
<defs>
<clipPath id="clip0_229_12538">
<rect width="21" height="15" fill="white" transform="translate(0.333374 0.5)"/>
</clipPath>
</defs>
</svg>
