<svg width="110" height="86" viewBox="0 0 110 86" fill="none" xmlns="http://www.w3.org/2000/svg">
<path d="M109.665 76.8868L99.5559 85.8488H72.1783L61.9595 76.8868V63.0614H77.8068V70.0014H93.8181V50.8754H72.1783L61.9595 41.8588V9.01658L72.1783 0H99.5559L109.665 8.96193V22.2955H93.8181V15.8473H77.8068V34.9734H99.5559L109.665 43.99V76.8868Z" fill="#687535"/>
<path d="M27.6579 49.5092C30.0259 38.9079 31.8839 30.5106 33.2318 24.3174C34.6162 18.1242 36.4377 10.0184 38.6964 0H54.9263L35.8002 85.8488H19.5157L0.334961 0H16.6194C18.8417 10.0549 20.6268 18.1789 21.9748 24.3721C23.3591 30.5289 25.2535 38.9079 27.6579 49.5092Z" fill="#687535"/>
</svg>
