<svg width="22" height="16" viewBox="0 0 22 16" fill="none" xmlns="http://www.w3.org/2000/svg">
<g clip-path="url(#clip0_229_12556)">
<mask id="mask0_229_12556" style="mask-type:alpha" maskUnits="userSpaceOnUse" x="0" y="0" width="22" height="16">
<path d="M2.66663 1H19.6666C20.4951 1 21.1666 1.67157 21.1666 2.5V13.5C21.1666 14.3284 20.4951 15 19.6666 15H2.66663C1.8382 15 1.16663 14.3284 1.16663 13.5V2.5C1.16663 1.67157 1.8382 1 2.66663 1Z" fill="white" stroke="#555555"/>
</mask>
<g mask="url(#mask0_229_12556)">
<path d="M19.6666 0.5H2.66663C1.56206 0.5 0.666626 1.39543 0.666626 2.5V13.5C0.666626 14.6046 1.56206 15.5 2.66663 15.5H19.6666C20.7712 15.5 21.6666 14.6046 21.6666 13.5V2.5C21.6666 1.39543 20.7712 0.5 19.6666 0.5Z" fill="#00773C"/>
<mask id="path-3-inside-1_229_12556" fill="white">
<path fill-rule="evenodd" clip-rule="evenodd" d="M16.6666 10.5002V9.50025H5.66661L7.66661 10.5002H13.6666C13.6666 11.0522 14.3386 11.5002 15.1666 11.5002C15.9946 11.5002 16.6666 11.0522 16.6666 10.5002ZM9.39661 4.40625C9.38461 4.40625 9.36661 4.41225 9.34361 4.42625C9.28961 4.46225 9.18361 4.57325 9.17961 4.70125C9.17661 4.77425 9.16261 4.77425 9.20961 4.82125C9.24361 4.86925 9.27961 4.86525 9.34761 4.82825C9.38761 4.79825 9.40061 4.78125 9.41461 4.73225C9.43061 4.65225 9.32761 4.77225 9.31461 4.68025C9.29161 4.59625 9.35761 4.56025 9.41961 4.48025C9.42161 4.44025 9.42161 4.41025 9.39661 4.40825V4.40625ZM10.3996 4.41125C10.3796 4.41525 10.3566 4.44125 10.3236 4.49925C10.3006 4.56125 10.1996 4.65525 10.2736 4.84925C10.3316 4.97225 10.3566 5.17125 10.3296 5.39425C10.2876 5.45725 10.2796 5.47925 10.2246 5.54225C10.1486 5.62525 10.0646 5.60425 10.0026 5.57225C9.94261 5.53225 9.89661 5.51225 9.86961 5.38625C9.87461 5.18625 9.88661 4.85425 9.84961 4.78425C9.79561 4.67625 9.70561 4.71425 9.66761 4.74725C9.48461 4.91725 9.39361 5.20025 9.33761 5.42725C9.28761 5.59125 9.23261 5.54325 9.19461 5.47725C9.10161 5.38925 9.09461 4.70725 8.98261 4.82025C8.80261 5.33425 9.08561 5.89725 9.28261 5.84225C9.42261 5.90225 9.51261 5.63225 9.57061 5.33725C9.61061 5.25425 9.64061 5.24425 9.66061 5.28725C9.65561 5.67925 9.69061 5.76725 9.79061 5.88525C10.0146 6.05925 10.2006 5.90725 10.2156 5.89325L10.3906 5.71925C10.4306 5.67925 10.4806 5.67525 10.5356 5.71125C10.5896 5.76125 10.5826 5.84425 10.6956 5.90125C10.7936 5.94125 10.9986 5.91125 11.0456 5.82825C11.1106 5.71825 11.1256 5.68025 11.1556 5.63825C11.2016 5.57825 11.2806 5.60525 11.2806 5.62425C11.2736 5.65925 11.2276 5.69425 11.2586 5.75425C11.3136 5.79425 11.3266 5.76825 11.3586 5.75925C11.4726 5.70525 11.5586 5.45725 11.5586 5.45725C11.5636 5.36525 11.5116 5.37225 11.4786 5.39125C11.4336 5.41825 11.4316 5.42725 11.3886 5.45425C11.3316 5.46225 11.2236 5.49925 11.1706 5.41625C11.1156 5.31625 11.1156 5.17825 11.0736 5.07625C11.0736 5.07025 11.0006 4.91925 11.0676 4.91025C11.1006 4.91625 11.1746 4.93525 11.1856 4.87425C11.2216 4.81425 11.1086 4.64425 11.0316 4.56025C10.9656 4.48725 10.8736 4.47825 10.7846 4.55225C10.7216 4.61025 10.7316 4.67425 10.7186 4.73525C10.7036 4.80525 10.7066 4.89225 10.7786 4.98525C10.8406 5.10725 10.9536 5.26525 10.9156 5.48725C10.9156 5.48725 10.8506 5.59325 10.7356 5.57925C10.6856 5.56925 10.6076 5.54925 10.5656 5.23925C10.5356 5.00625 10.5736 4.67925 10.4756 4.52625C10.4526 4.46925 10.4336 4.41325 10.4016 4.41625L10.3996 4.41125ZM10.0816 4.43725C10.0516 4.44025 10.0186 4.47525 9.99161 4.54225C9.96861 4.59425 9.93961 4.86225 9.94461 4.86225C9.92461 4.94225 10.0276 4.97625 10.0746 4.87425C10.1446 4.68425 10.1446 4.60425 10.1486 4.52625C10.1386 4.46625 10.1116 4.43625 10.0816 4.43825V4.43725ZM11.2546 4.45725C11.2246 4.46125 11.1996 4.47925 11.1906 4.52525C11.1776 4.63125 11.1846 4.69025 11.2026 4.77925C11.2156 4.83925 11.3026 4.93725 11.3446 4.99525C11.5476 5.26825 11.7446 5.54225 11.9326 5.82525C11.9626 6.03725 11.9826 6.24325 11.9976 6.44925C12.0296 6.89925 12.0376 7.45925 12.0106 7.93425C12.0946 7.93725 12.2306 7.79725 12.2776 7.59425C12.3076 7.31025 12.2676 6.73425 12.2636 6.56625L12.2536 6.32825C12.4736 6.68825 12.6856 7.06825 12.8936 7.48425C12.9706 7.44825 12.9536 7.01925 12.9096 6.95925C12.7416 6.59925 12.5096 6.24325 12.4366 6.10625C12.4096 6.05625 12.3186 5.91925 12.2116 5.76025C12.1916 5.53225 12.1696 5.34025 12.1556 5.28225C12.1206 5.04225 12.2536 5.30925 12.2356 5.17025C12.1916 4.93025 12.0596 4.76825 11.9036 4.54825C11.8536 4.47825 11.8536 4.46225 11.7766 4.56625C11.7316 4.67125 11.7316 4.75925 11.7466 4.84125C11.7246 4.81125 11.6996 4.77725 11.6636 4.73325L11.4086 4.51725C11.3736 4.49225 11.3056 4.45425 11.2546 4.45725ZM14.7306 4.49425C14.7156 4.49225 14.7006 4.49925 14.6806 4.52625C14.6456 4.55625 14.6086 4.61325 14.6106 4.68625C14.6176 4.81125 14.6406 4.94025 14.6486 5.06625L14.6586 5.11625C14.6446 5.10025 14.6326 5.08625 14.6256 5.08025C14.3786 4.82025 14.7386 5.03625 14.5776 4.83725C14.4426 4.68725 14.4026 4.64125 14.2876 4.55125C14.2276 4.51525 14.1936 4.44325 14.1746 4.56525C14.1666 4.67225 14.1586 4.79725 14.1646 4.88725C14.1646 4.93725 14.2176 5.03225 14.2626 5.08725C14.4266 5.29025 14.5946 5.50525 14.7626 5.72925C14.7986 6.18625 14.8076 6.60525 14.8426 7.06325C14.8386 7.25925 14.7786 7.51925 14.7226 7.54325C14.7226 7.54325 14.6346 7.59325 14.5766 7.53825C14.5336 7.52125 14.3646 7.25525 14.3646 7.25525C14.2776 7.17525 14.2196 7.19825 14.1586 7.25525C13.9886 7.41925 13.9106 7.72725 13.7956 7.93925C13.7656 7.98625 13.6826 8.02725 13.5896 7.93525C13.3526 7.61125 13.4896 7.15025 13.4616 7.26925C13.2516 7.50725 13.3436 7.90125 13.3916 7.98625C13.4616 8.12625 13.5176 8.21625 13.6516 8.28325C13.7766 8.37325 13.8716 8.31825 13.9256 8.25325C14.0496 8.12525 14.0516 7.79625 14.1096 7.73125C14.1496 7.61125 14.2526 7.63125 14.3026 7.68525C14.3526 7.75525 14.4086 7.80025 14.4796 7.83825C14.5956 7.94025 14.7336 7.95825 14.8696 7.86525C14.9626 7.81325 15.0236 7.74525 15.0776 7.61125C15.1376 7.45525 15.1076 6.63525 15.0946 6.17925L15.3546 6.55525C15.3906 6.95525 15.4076 7.35025 15.3946 7.72825C15.3866 7.80325 15.6576 7.50425 15.6546 7.36225C15.6546 7.23925 15.6566 7.12625 15.6546 7.02225C15.7876 7.23225 15.9146 7.44525 16.0346 7.66225C16.1096 7.62225 16.0846 7.19925 16.0376 7.14225C15.9116 6.93025 15.7496 6.70225 15.6246 6.52425C15.5996 6.30125 15.5666 6.03825 15.5506 5.95725C15.5276 5.83125 15.5036 5.64225 15.4676 5.49325C15.4576 5.43625 15.4276 5.25025 15.4376 5.23325C15.4516 5.19025 15.5076 5.23325 15.5346 5.18525C15.5746 5.14025 15.3926 4.66525 15.2996 4.53125C15.2666 4.47125 15.2056 4.49125 15.1316 4.59125C15.0616 4.65525 15.0876 4.80325 15.1136 4.94425C15.1816 5.30425 15.2436 5.66825 15.2916 6.03425C15.2016 5.89925 15.0916 5.73725 14.9836 5.58225L14.9696 5.51225C14.9696 5.50425 14.9556 5.21725 14.9426 5.14925C14.9396 5.12125 14.9326 5.11325 14.9626 5.11725C14.9926 5.14325 14.9966 5.14425 15.0156 5.15325C15.0476 5.15725 15.0756 5.10525 15.0556 5.05625L14.7656 4.52225C14.7556 4.50925 14.7416 4.49725 14.7256 4.49525L14.7306 4.49425ZM5.76061 4.50425C5.70561 4.50225 5.64761 4.53425 5.67061 4.59925C5.65661 4.63425 5.77461 4.75225 5.79561 4.81725C5.81261 4.86425 5.77561 5.01225 5.81561 5.02725C5.85061 5.04225 5.89961 4.92325 5.91761 4.81425C5.92761 4.75425 5.92061 4.54825 5.78061 4.50625C5.77361 4.50425 5.76661 4.50425 5.75861 4.50325L5.76061 4.50425ZM15.9806 4.50425C15.9676 4.50625 15.9526 4.52425 15.9306 4.57425C15.8756 4.66425 15.8566 4.82425 15.8786 4.96425C16.0086 5.85425 16.1086 6.71625 16.1286 7.50425C16.1166 7.58025 16.1126 7.62025 16.0786 7.71425C16.0006 7.81425 15.9146 7.93825 15.8336 7.99825C15.7536 8.05825 15.5816 8.11625 15.5256 8.16025C15.3456 8.26225 15.3456 8.38025 15.4896 8.38525C15.7376 8.35525 16.0316 8.33525 16.2336 8.03025C16.2876 7.94525 16.3516 7.71325 16.3536 7.57025C16.3736 6.74025 16.3436 5.92525 16.2186 5.32425C16.2106 5.26425 16.1846 5.13125 16.1946 5.11425C16.2096 5.07225 16.2906 5.11725 16.3196 5.07025C16.3626 5.02625 16.1096 4.70325 16.0216 4.56525C16.0036 4.53125 15.9916 4.50225 15.9776 4.50525L15.9806 4.50425ZM13.3776 4.51825C13.3676 4.52025 13.3536 4.53625 13.3256 4.57325C13.2556 4.79925 13.2316 4.98325 13.2586 5.12525C13.4386 6.05525 13.6186 6.90025 13.5906 7.78525C13.6746 7.78525 13.7726 7.59225 13.8146 7.40025C13.8376 7.13525 13.7986 6.97425 13.7926 6.82025C13.7856 6.66425 13.6166 5.40425 13.5826 5.28725C13.5406 5.06525 13.7466 5.25725 13.7246 5.12925C13.6526 4.96525 13.4746 4.72925 13.4206 4.58625C13.4006 4.54825 13.3966 4.51325 13.3806 4.51625L13.3776 4.51825ZM7.04361 4.53625C7.02361 4.54025 7.00061 4.55825 6.99361 4.58625C6.98861 4.60625 7.00161 4.63925 6.98361 4.64925C6.97361 4.65925 6.93561 4.65225 6.93761 4.59925C6.93761 4.58125 6.92461 4.56325 6.91761 4.55225C6.90961 4.54825 6.90461 4.54725 6.89061 4.54725C6.87361 4.54725 6.87361 4.55225 6.86461 4.56725C6.86061 4.58125 6.85461 4.59525 6.85461 4.61125C6.85261 4.63125 6.84461 4.63625 6.83161 4.63925C6.81561 4.63925 6.81861 4.64125 6.80661 4.63225C6.79661 4.62525 6.78861 4.62225 6.78861 4.60825C6.78861 4.59325 6.78461 4.56825 6.78061 4.56025C6.77361 4.55025 6.76261 4.54625 6.75061 4.54325C6.68461 4.54325 6.68061 4.62125 6.68361 4.64925C6.67861 4.65525 6.67661 4.78925 6.76661 4.82725C6.88661 4.88525 7.11461 4.86025 7.10661 4.66525C7.10661 4.64825 7.10161 4.59025 7.09961 4.57525C7.08761 4.54525 7.06461 4.53525 7.04261 4.53825L7.04361 4.53625ZM8.66961 4.53825C8.62761 4.54025 8.58961 4.55225 8.55961 4.56825C8.47961 4.64525 8.45961 4.76825 8.52361 4.84525C8.58361 4.87525 8.64661 4.93525 8.60561 4.97025C8.43161 5.15525 7.97861 5.46625 7.95561 5.52325V5.52925H7.95961V5.53125C7.98261 5.54625 8.26661 5.54625 8.29761 5.53125H8.29961C8.39761 5.49425 8.85961 4.96625 8.85961 4.96625C8.83561 4.94625 8.81361 4.93025 8.78961 4.90925C8.76361 4.88725 8.76661 4.86525 8.78961 4.84325C8.90361 4.77725 8.86761 4.63025 8.80761 4.56325C8.75761 4.54125 8.71161 4.53325 8.66961 4.53625V4.53825ZM12.9196 4.53825C12.9076 4.54125 12.8926 4.55825 12.8696 4.60825C12.8146 4.69825 12.7776 4.85325 12.7826 4.99825C12.9006 5.81825 12.9366 6.53525 13.0146 7.35525C13.0206 7.43525 13.0086 7.54925 12.9566 7.59525C12.7606 7.79925 12.4796 8.04925 12.1736 8.16525C12.1406 8.20225 12.2556 8.35925 12.4036 8.35925C12.6516 8.32925 12.8696 8.19125 13.0736 7.82425C13.1266 7.73925 13.2216 7.55625 13.2236 7.41425C13.2436 6.58225 13.1836 5.93425 13.0576 5.33425C13.0506 5.27425 13.0556 5.20425 13.0656 5.18825C13.0816 5.16825 13.1356 5.18825 13.1656 5.14125C13.2076 5.09725 13.0516 4.73825 12.9636 4.60125C12.9456 4.56625 12.9356 4.53825 12.9196 4.53925V4.53825ZM6.33561 4.56525C6.30161 4.56925 6.26961 4.59525 6.25361 4.63525C6.24861 4.76525 6.24761 4.89525 6.26361 5.01725C6.32361 5.23025 6.34061 5.41725 6.36961 5.63425C6.37961 5.92625 6.20161 5.76025 6.20961 5.61625C6.24961 5.42825 6.23961 5.13325 6.20361 5.05825C6.17361 4.98325 6.14161 4.96525 6.07161 4.97825C6.01661 4.97425 5.87361 5.12825 5.83361 5.38825C5.83361 5.38825 5.79961 5.52025 5.78561 5.63825C5.76561 5.77125 5.67761 5.86625 5.61561 5.62025C5.56261 5.44025 5.53061 5.00025 5.44161 5.10225C5.41561 5.44625 5.38561 6.05225 5.67761 6.11425C6.03161 6.14825 5.83561 5.51625 5.96361 5.40125C5.98861 5.34625 6.03361 5.34525 6.03661 5.41625V5.95325C6.03261 6.12725 6.14661 6.17925 6.23661 6.21525C6.32961 6.20825 6.39061 6.21125 6.42661 6.30125L6.47161 7.23125C6.47161 7.23125 6.68561 7.29125 6.69561 6.70825C6.70561 6.36525 6.62561 6.07825 6.67261 6.01125C6.67461 5.94525 6.75861 5.94125 6.81661 5.97425C6.90961 6.03925 6.95061 6.11925 7.09461 6.08725C7.31461 6.02725 7.44461 5.92125 7.44761 5.75325C7.43761 5.59325 7.41761 5.43325 7.34761 5.27325C7.35761 5.24525 7.30761 5.17025 7.31761 5.14125C7.35561 5.20125 7.41561 5.19725 7.42761 5.14125C7.39161 5.01825 7.33361 4.90125 7.23961 4.85125C7.16261 4.78125 7.04961 4.79625 7.00761 4.93825C6.98761 5.10225 7.06761 5.29625 7.18761 5.45525C7.21161 5.51725 7.24761 5.62025 7.23161 5.71325C7.16861 5.74925 7.10561 5.73325 7.05161 5.67825C7.05161 5.67825 6.87861 5.54825 6.87861 5.51825C6.92561 5.22325 6.88861 5.18825 6.86361 5.10825C6.84561 4.99425 6.79161 4.95825 6.74861 4.88025C6.70461 4.83325 6.64561 4.83325 6.61861 4.88025C6.54061 5.01325 6.57661 5.30025 6.63261 5.42725C6.67261 5.54525 6.73461 5.61925 6.70561 5.61925C6.68161 5.68425 6.63161 5.66925 6.59561 5.59225C6.54561 5.43225 6.53361 5.19625 6.53361 5.08925C6.51861 4.95725 6.50161 4.67425 6.41361 4.60225C6.39061 4.57025 6.36361 4.55925 6.33661 4.56225L6.33561 4.56525ZM7.57761 4.56525C7.56061 4.56925 7.54061 4.57925 7.51761 4.58525C7.44261 4.60825 7.37261 4.67325 7.39461 4.79925C7.48461 5.33925 7.54161 5.75225 7.63061 6.29225C7.64361 6.35625 7.59061 6.43925 7.52261 6.43225C7.40661 6.35225 7.37761 6.19225 7.17961 6.20025C7.03561 6.20025 6.87161 6.35825 6.85161 6.50825C6.82761 6.62825 6.81961 6.75825 6.85161 6.86225C6.95161 6.98225 7.07361 6.97025 7.17961 6.94225C7.26661 6.90725 7.33961 6.82225 7.36961 6.84225C7.38961 6.87525 7.36761 7.15625 6.95961 7.37225C6.70761 7.48625 6.50761 7.51225 6.39961 7.30825C6.33361 7.18025 6.40561 6.69225 6.24161 6.80425C5.75561 8.05625 7.37861 8.23025 7.55961 6.85625C7.57161 6.81625 7.60661 6.77825 7.63261 6.78825C7.64261 6.79325 7.65261 6.80825 7.65661 6.83625C7.61861 8.08025 6.40061 8.16625 6.19461 7.77425C6.14261 7.68225 6.12761 7.47625 6.12261 7.35425C6.11261 7.27925 6.09461 7.23625 6.07261 7.21925C6.02261 7.18225 5.95661 7.27925 5.94261 7.44625C5.92261 7.58125 5.92761 7.61825 5.92761 7.74825C5.99361 8.73125 7.56061 8.30825 7.81561 7.49825C7.94161 7.07825 7.81261 6.76125 7.85561 6.72225L7.85861 6.72025H7.86161L7.86661 6.71825C8.02261 6.88625 8.24061 6.73825 8.28861 6.68125C8.30861 6.65125 8.36061 6.63125 8.39661 6.67125C8.51661 6.75725 8.73061 6.71625 8.77461 6.56125C8.80061 6.41125 8.82261 6.25725 8.82761 6.09625C8.74761 6.12125 8.68361 6.13925 8.65761 6.16625C8.65161 6.17325 8.64761 6.18125 8.64561 6.18925L8.62561 6.32225C8.62561 6.32725 8.62361 6.33025 8.62161 6.33225C8.61861 6.33925 8.61161 6.34425 8.60761 6.34725C8.57961 6.36225 8.53061 6.35425 8.52761 6.31325C8.49061 6.14325 8.33561 6.12125 8.24161 6.38625C8.17861 6.43625 8.06161 6.44625 8.05161 6.37025C8.06661 6.19225 7.99461 6.16825 7.85161 6.25225L7.71361 5.21225C7.77361 5.20925 7.82761 5.25225 7.88361 5.18425C7.82361 5.00025 7.69861 4.62625 7.62761 4.59025H7.62561L7.61561 4.58025C7.61561 4.57825 7.61261 4.57725 7.61061 4.57625L7.60661 4.57025C7.60261 4.57025 7.59861 4.56825 7.59661 4.56725C7.58961 4.56525 7.58361 4.56525 7.57661 4.56525H7.57761ZM12.4196 4.56925C12.3576 4.56725 12.2896 4.60625 12.3156 4.68425C12.2996 4.72725 12.4486 4.87125 12.4726 4.94925C12.5156 5.06925 12.4396 5.18625 12.4846 5.20325C12.5266 5.22125 12.5846 5.07825 12.6046 4.94525C12.6306 4.83725 12.5546 4.61725 12.4446 4.57225L12.4196 4.57025V4.56925ZM8.64661 4.70025C8.67461 4.69825 8.70861 4.72425 8.72661 4.76025C8.74361 4.80025 8.73461 4.83725 8.70661 4.84425C8.67661 4.85125 8.63861 4.82625 8.62061 4.78625C8.60261 4.74625 8.61061 4.70925 8.64061 4.70225H8.64661V4.70025ZM15.6436 4.88225C15.5866 4.88025 15.5236 4.92225 15.5496 5.00725C15.5356 5.05325 15.6696 5.20925 15.6926 5.29525C15.7126 5.35525 15.6626 5.55125 15.7026 5.56925C15.7406 5.58925 15.7926 5.43325 15.8126 5.28925C15.8246 5.20925 15.7666 4.93425 15.6676 4.88525C15.6606 4.88325 15.6526 4.88125 15.6446 4.88125L15.6436 4.88225ZM11.7736 4.97825C11.7806 5.00125 11.7856 5.02425 11.7886 5.04825C11.8006 5.09825 11.8106 5.14825 11.8206 5.20025C11.7766 5.13825 11.7406 5.08825 11.7236 5.07025C11.6236 4.95025 11.7256 4.99225 11.7736 4.97825ZM12.6666 5.41625C12.6446 5.42025 12.6236 5.43925 12.6166 5.46925C12.6106 5.48725 12.6246 5.51925 12.6066 5.52925C12.5966 5.53925 12.5566 5.53325 12.5596 5.47925C12.5596 5.46125 12.5466 5.44225 12.5396 5.43225C12.5316 5.42725 12.5266 5.42525 12.5126 5.42525C12.4956 5.42525 12.4956 5.43025 12.4866 5.44525C12.4826 5.45925 12.4766 5.47325 12.4766 5.49025C12.4766 5.51025 12.4686 5.51625 12.4546 5.52025C12.4386 5.52025 12.4416 5.52025 12.4286 5.51325C12.4206 5.50325 12.4116 5.50125 12.4116 5.48725C12.4116 5.47225 12.4086 5.44925 12.4036 5.43925C12.3966 5.42925 12.3866 5.42625 12.3736 5.42225C12.3086 5.42225 12.3036 5.49825 12.3076 5.52625C12.3036 5.53225 12.3006 5.66825 12.3906 5.70625C12.5126 5.76325 12.7406 5.73625 12.7306 5.54225C12.7306 5.52525 12.7256 5.46725 12.7246 5.45225C12.7116 5.42225 12.6886 5.41225 12.6676 5.41525L12.6666 5.41625ZM8.59661 5.45625C8.58261 5.45625 8.56261 5.46025 8.53961 5.47425C8.43261 5.53225 8.39161 5.70425 8.45961 5.80425C8.51961 5.89425 8.61961 5.86125 8.63261 5.86125C8.73761 5.87525 8.79961 5.66525 8.79961 5.66525C8.79961 5.66525 8.80261 5.60525 8.67961 5.71725C8.62561 5.72725 8.61961 5.70725 8.60561 5.67725C8.59361 5.62425 8.59561 5.56725 8.62061 5.51425C8.63261 5.48125 8.62061 5.46025 8.59661 5.45825V5.45625ZM14.3496 5.48325C14.2896 5.48025 14.2266 5.51925 14.2096 5.60025C14.2096 5.64825 14.2316 5.67425 14.2276 5.71825C14.2226 5.74325 14.1976 5.75825 14.1356 5.73025C14.1456 5.72025 14.0956 5.65225 14.0956 5.65225C14.0486 5.62225 13.9856 5.65225 13.9436 5.68025C13.9206 5.72225 13.9036 5.79325 13.9296 5.86525C13.9976 5.99225 14.2326 6.20825 14.3446 6.21025C14.3466 6.09625 14.3576 5.94425 14.3646 5.85025C14.3666 5.81425 14.3746 5.77525 14.4096 5.76625C14.4436 5.75625 14.5026 5.80025 14.5026 5.76325C14.4966 5.69125 14.4826 5.58325 14.4426 5.53325C14.4206 5.50325 14.3856 5.48525 14.3506 5.48325H14.3496ZM9.58661 5.88025L9.58361 5.88325C9.58361 5.88325 9.58161 5.88325 9.58061 5.88525C9.56861 5.89525 9.55461 5.91525 9.52361 5.93525C9.47061 5.99525 9.46161 6.03825 9.46361 6.15825C9.46761 6.17125 9.56361 6.44125 9.64661 6.63025C9.70261 6.82725 9.75361 7.05325 9.71661 7.26625C9.58661 7.54825 9.32661 7.80125 9.07361 7.93925C8.94361 7.97925 8.83361 7.96525 8.80361 7.93725C8.72961 7.88725 8.72861 7.79725 8.73361 7.78325V7.78025C8.94561 7.63225 9.18861 7.51225 9.37861 7.11325C9.43461 6.96025 9.45261 6.86825 9.39661 6.63325C9.37461 6.54325 9.34661 6.47325 9.28661 6.40925H9.28861C9.32461 6.39225 9.41861 6.46125 9.43361 6.41925C9.41061 6.30525 9.33361 6.15425 9.24861 6.07625C9.17261 6.00625 9.08861 5.99925 9.02061 6.06225C8.94261 6.10625 8.92661 6.26225 8.96361 6.39825C9.00561 6.50025 9.11861 6.51825 9.19861 6.72525C9.20061 6.73925 9.22561 6.88025 9.18561 6.93825C9.15161 7.04025 8.73061 7.37225 8.70061 7.39225L8.69761 7.39425L8.69561 7.39625H8.69361H8.69161V7.39325C8.68961 7.38525 8.69161 7.36325 8.69161 7.33025C8.68861 7.26825 8.71461 7.12725 8.71161 7.10225V7.10025C8.57161 7.19025 8.52461 7.46525 8.49961 7.54725C8.14661 7.79025 7.74661 7.97125 7.51561 8.21725C7.39561 8.40725 8.34361 8.00325 8.45361 7.95425L8.45661 7.95725C8.47861 7.98025 8.47961 8.06025 8.54261 8.13325C8.64261 8.26625 8.85061 8.34825 9.05461 8.29725C9.39661 8.17425 9.59461 7.94125 9.79461 7.68225C9.82261 7.64225 9.86761 7.60825 9.90961 7.64025C10.0466 7.94825 10.4446 8.16825 10.9576 8.19025C11.0776 8.04625 11.0206 7.97525 10.9726 7.94525C10.9576 7.93525 10.7176 7.84125 10.6796 7.74825C10.6566 7.66225 10.7136 7.58525 10.8276 7.52825C11.1576 7.48825 11.4816 7.44325 11.7956 7.34225C11.7986 7.23625 11.8606 7.07925 11.9026 7.01025C11.9326 6.96325 11.9496 6.95825 11.9566 6.95225V6.95025H11.9586V6.94725V6.93725L11.9046 6.90525L10.8516 6.90125C10.8386 6.89625 10.8296 6.89125 10.8236 6.88625L10.8216 6.88325C10.8216 6.88325 10.8196 6.88325 10.8196 6.88125C10.8196 6.87925 10.8176 6.87925 10.8176 6.87925V6.88025V6.87825V6.87625V6.87425L10.8196 6.87125C10.8246 6.86525 10.8376 6.85825 10.8526 6.85125C11.1046 6.81825 11.5506 6.74525 11.5806 6.31625C11.5756 6.09225 11.4846 5.94625 11.2106 5.90625C11.0086 5.92125 10.8646 6.11625 10.8876 6.33025C10.8776 6.38725 10.9076 6.50025 10.8476 6.51325C10.4616 6.54925 10.0396 6.79125 10.0256 6.96525H10.0236H10.0216H10.0196C10.0196 6.96725 10.0176 6.96725 10.0166 6.96725H10.0126H10.0106H10.0066C9.98161 6.95925 9.94961 6.91725 9.95461 6.86025C9.93961 6.56025 9.84161 6.22025 9.68961 5.96025C9.63461 5.90525 9.60961 5.88325 9.59561 5.88025H9.59261H9.58961H9.58761H9.58661ZM10.5946 6.03825C10.5746 6.04225 10.5516 6.06025 10.5446 6.09025C10.5396 6.11025 10.5546 6.14225 10.5366 6.15225C10.5266 6.16225 10.4866 6.15625 10.4886 6.10225C10.4886 6.08525 10.4756 6.06625 10.4686 6.05525C10.4606 6.05025 10.4556 6.04925 10.4426 6.04925C10.4256 6.04925 10.4246 6.05325 10.4156 6.06725C10.4106 6.08125 10.4056 6.09725 10.4056 6.11225C10.4036 6.13225 10.3956 6.13825 10.3826 6.14025C10.3666 6.14025 10.3706 6.14325 10.3576 6.13525C10.3496 6.12725 10.3396 6.12325 10.3396 6.10925C10.3396 6.09425 10.3366 6.06925 10.3326 6.05925C10.3256 6.05225 10.3146 6.04925 10.3026 6.04525C10.2356 6.04525 10.2326 6.12025 10.2356 6.14925C10.2306 6.15425 10.2276 6.28925 10.3176 6.32725C10.4376 6.38525 10.7276 6.35125 10.6576 6.16425C10.6576 6.14725 10.6526 6.08925 10.6516 6.07425C10.6386 6.04425 10.6156 6.03425 10.5936 6.03725L10.5946 6.03825ZM14.6596 6.20525H14.6496C14.6496 6.20525 14.0876 6.60525 14.0746 6.61925C14.0186 6.66925 14.0466 6.84225 14.0746 6.82225C14.1146 6.83725 14.6796 6.45425 14.6686 6.40925C14.6936 6.41125 14.7056 6.21225 14.6586 6.20425L14.6596 6.20525ZM11.1256 6.26525C11.1476 6.26225 11.1776 6.27025 11.2056 6.28525C11.2486 6.31125 11.2756 6.34725 11.2706 6.37525V6.37925C11.2686 6.37925 11.2686 6.37925 11.2686 6.38125V6.38325C11.2686 6.38325 11.2666 6.38325 11.2666 6.38525C11.2666 6.38725 11.2636 6.38925 11.2616 6.39125C11.2416 6.41125 11.1956 6.40725 11.1516 6.38125C11.1096 6.35825 11.0846 6.32125 11.0866 6.29525V6.29225L11.0916 6.28225C11.0916 6.28225 11.0916 6.28025 11.0936 6.27925L11.0986 6.27325C11.1056 6.26825 11.1146 6.26325 11.1256 6.26325V6.26525ZM6.20761 6.36525C5.91761 6.37125 5.49061 6.74725 5.47961 6.95525L6.39961 6.51525C6.34961 6.43925 6.39661 6.37125 6.20761 6.36525ZM7.15061 6.49525C7.17861 6.49725 7.20861 6.51125 7.22461 6.55125C7.23861 6.58825 7.22461 6.62625 7.20761 6.64525V6.64825C7.19361 6.66425 7.15161 6.65825 7.12061 6.65825C7.08361 6.65625 7.06561 6.65025 7.04361 6.62025C7.03161 6.58525 7.06361 6.55225 7.07861 6.52825L7.08561 6.51825C7.09561 6.50825 7.11561 6.50025 7.13561 6.49825L7.14861 6.49625L7.15061 6.49525ZM14.5506 6.61225C14.4976 6.61825 14.4486 6.66725 14.4706 6.74525C14.4566 6.79125 14.5406 6.95225 14.5636 7.03725C14.5836 7.09725 14.5376 7.27025 14.5786 7.28725C14.6166 7.30725 14.7156 7.18725 14.7126 7.03325C14.7226 6.95325 14.6846 6.66325 14.5856 6.61525C14.5736 6.61225 14.5616 6.61125 14.5496 6.61225H14.5506ZM8.26661 6.89625C8.22061 6.89925 8.17961 6.92325 8.19861 6.98825C8.19561 7.03425 8.32861 7.09125 8.33561 7.19825C8.35361 7.24425 8.30561 7.38825 8.34561 7.40025C8.38161 7.41525 8.43161 7.30025 8.45061 7.19625C8.46061 7.13825 8.40461 6.93625 8.31061 6.89925C8.29561 6.89525 8.28061 6.89425 8.26561 6.89525L8.26661 6.89625ZM10.1466 7.15225H10.1586C10.2766 7.18425 10.4486 7.18825 10.5986 7.20225C10.7216 7.21225 10.7816 7.30625 10.6686 7.34725C10.5546 7.38525 10.4456 7.41725 10.4456 7.57925C10.4596 7.65925 10.4556 7.70125 10.4436 7.71925C10.4436 7.72225 10.4406 7.72425 10.4396 7.72525C10.4396 7.72525 10.4396 7.72725 10.4376 7.72725V7.72925H10.4346L10.4276 7.73225H10.4226C10.3956 7.73725 10.3566 7.71225 10.3276 7.69625C10.2576 7.64625 10.0626 7.52625 10.0346 7.26625C10.0306 7.20625 10.0746 7.15625 10.1446 7.15125L10.1466 7.15225ZM5.55261 7.35225C5.54561 7.35225 5.53261 7.37425 5.51261 7.39925C5.33861 7.67425 5.32261 8.08525 5.41861 8.20925C5.46861 8.26625 5.55261 8.29225 5.61461 8.27425C5.72461 8.22725 5.77161 8.00625 5.74461 7.92625C5.70961 7.86925 5.68061 7.86025 5.64461 7.90825C5.56761 8.06325 5.53461 7.95625 5.52961 7.86825C5.51761 7.70525 5.53361 7.55325 5.55161 7.43325C5.56161 7.37325 5.56161 7.35025 5.55161 7.35025L5.55261 7.35225ZM11.4496 7.71425C11.4366 7.71425 11.4236 7.71625 11.4096 7.72425C11.4066 7.72425 11.2856 7.80425 11.2466 7.86225C11.2226 7.88025 11.2266 7.89525 11.2326 7.92725C11.2506 7.97025 11.2826 7.95725 11.3206 7.93725C11.3706 7.92925 11.3936 7.96225 11.3906 8.02125C11.3676 8.09625 11.4006 8.12325 11.4006 8.12825C11.4006 8.13225 11.4476 8.17325 11.5036 8.14125C11.6206 8.09625 11.6936 8.05125 11.8586 8.01625C11.9016 8.01625 11.8986 7.90025 11.8306 7.89625C11.7406 7.90025 11.6606 7.90625 11.5706 7.97625C11.5156 7.98825 11.5066 7.95425 11.4936 7.92425C11.4796 7.85025 11.5256 7.79825 11.5156 7.74225C11.5176 7.74525 11.4876 7.71825 11.4486 7.71625L11.4496 7.71425ZM15.2256 7.85425L15.1456 7.86225C15.1096 7.86925 15.0976 7.88525 15.0906 7.92925C15.0936 7.99425 15.1336 7.99125 15.1756 8.01725C15.1996 8.04725 15.2156 8.07525 15.1736 8.12725C15.1336 8.16225 15.1066 8.18225 15.0666 8.21725C15.0496 8.24925 15.0366 8.29725 15.0946 8.31325C15.1996 8.34325 15.4426 8.18525 15.4426 8.18325C15.4826 8.15325 15.4686 8.09625 15.4656 8.09625C15.4416 8.07025 15.3896 8.08625 15.3556 8.08125C15.3386 8.08125 15.2856 8.07325 15.3096 8.02525C15.3316 7.99525 15.3396 7.97825 15.3546 7.94125C15.3696 7.90525 15.3546 7.88125 15.2966 7.86125C15.2666 7.85525 15.2466 7.85325 15.2236 7.85425H15.2256ZM13.7726 11.7142C14.0426 11.7272 14.2946 11.7172 14.5626 11.7302C14.6066 11.7662 14.5856 11.8503 14.5576 11.8643L14.5526 11.8663H14.5496H14.5456L14.3196 11.8602V11.8472C14.2976 11.7853 14.1476 11.7892 14.1116 11.8372V11.8403C14.1096 11.8403 14.1086 11.8432 14.1086 11.8442L14.1066 11.8492V11.8612C13.9866 11.8762 13.8816 11.8572 13.7636 11.8532C13.7286 11.8102 13.7336 11.7333 13.7736 11.7133L13.7726 11.7142Z"/>
</mask>
<path fill-rule="evenodd" clip-rule="evenodd" d="M16.6666 10.5002V9.50025H5.66661L7.66661 10.5002H13.6666C13.6666 11.0522 14.3386 11.5002 15.1666 11.5002C15.9946 11.5002 16.6666 11.0522 16.6666 10.5002ZM9.39661 4.40625C9.38461 4.40625 9.36661 4.41225 9.34361 4.42625C9.28961 4.46225 9.18361 4.57325 9.17961 4.70125C9.17661 4.77425 9.16261 4.77425 9.20961 4.82125C9.24361 4.86925 9.27961 4.86525 9.34761 4.82825C9.38761 4.79825 9.40061 4.78125 9.41461 4.73225C9.43061 4.65225 9.32761 4.77225 9.31461 4.68025C9.29161 4.59625 9.35761 4.56025 9.41961 4.48025C9.42161 4.44025 9.42161 4.41025 9.39661 4.40825V4.40625ZM10.3996 4.41125C10.3796 4.41525 10.3566 4.44125 10.3236 4.49925C10.3006 4.56125 10.1996 4.65525 10.2736 4.84925C10.3316 4.97225 10.3566 5.17125 10.3296 5.39425C10.2876 5.45725 10.2796 5.47925 10.2246 5.54225C10.1486 5.62525 10.0646 5.60425 10.0026 5.57225C9.94261 5.53225 9.89661 5.51225 9.86961 5.38625C9.87461 5.18625 9.88661 4.85425 9.84961 4.78425C9.79561 4.67625 9.70561 4.71425 9.66761 4.74725C9.48461 4.91725 9.39361 5.20025 9.33761 5.42725C9.28761 5.59125 9.23261 5.54325 9.19461 5.47725C9.10161 5.38925 9.09461 4.70725 8.98261 4.82025C8.80261 5.33425 9.08561 5.89725 9.28261 5.84225C9.42261 5.90225 9.51261 5.63225 9.57061 5.33725C9.61061 5.25425 9.64061 5.24425 9.66061 5.28725C9.65561 5.67925 9.69061 5.76725 9.79061 5.88525C10.0146 6.05925 10.2006 5.90725 10.2156 5.89325L10.3906 5.71925C10.4306 5.67925 10.4806 5.67525 10.5356 5.71125C10.5896 5.76125 10.5826 5.84425 10.6956 5.90125C10.7936 5.94125 10.9986 5.91125 11.0456 5.82825C11.1106 5.71825 11.1256 5.68025 11.1556 5.63825C11.2016 5.57825 11.2806 5.60525 11.2806 5.62425C11.2736 5.65925 11.2276 5.69425 11.2586 5.75425C11.3136 5.79425 11.3266 5.76825 11.3586 5.75925C11.4726 5.70525 11.5586 5.45725 11.5586 5.45725C11.5636 5.36525 11.5116 5.37225 11.4786 5.39125C11.4336 5.41825 11.4316 5.42725 11.3886 5.45425C11.3316 5.46225 11.2236 5.49925 11.1706 5.41625C11.1156 5.31625 11.1156 5.17825 11.0736 5.07625C11.0736 5.07025 11.0006 4.91925 11.0676 4.91025C11.1006 4.91625 11.1746 4.93525 11.1856 4.87425C11.2216 4.81425 11.1086 4.64425 11.0316 4.56025C10.9656 4.48725 10.8736 4.47825 10.7846 4.55225C10.7216 4.61025 10.7316 4.67425 10.7186 4.73525C10.7036 4.80525 10.7066 4.89225 10.7786 4.98525C10.8406 5.10725 10.9536 5.26525 10.9156 5.48725C10.9156 5.48725 10.8506 5.59325 10.7356 5.57925C10.6856 5.56925 10.6076 5.54925 10.5656 5.23925C10.5356 5.00625 10.5736 4.67925 10.4756 4.52625C10.4526 4.46925 10.4336 4.41325 10.4016 4.41625L10.3996 4.41125ZM10.0816 4.43725C10.0516 4.44025 10.0186 4.47525 9.99161 4.54225C9.96861 4.59425 9.93961 4.86225 9.94461 4.86225C9.92461 4.94225 10.0276 4.97625 10.0746 4.87425C10.1446 4.68425 10.1446 4.60425 10.1486 4.52625C10.1386 4.46625 10.1116 4.43625 10.0816 4.43825V4.43725ZM11.2546 4.45725C11.2246 4.46125 11.1996 4.47925 11.1906 4.52525C11.1776 4.63125 11.1846 4.69025 11.2026 4.77925C11.2156 4.83925 11.3026 4.93725 11.3446 4.99525C11.5476 5.26825 11.7446 5.54225 11.9326 5.82525C11.9626 6.03725 11.9826 6.24325 11.9976 6.44925C12.0296 6.89925 12.0376 7.45925 12.0106 7.93425C12.0946 7.93725 12.2306 7.79725 12.2776 7.59425C12.3076 7.31025 12.2676 6.73425 12.2636 6.56625L12.2536 6.32825C12.4736 6.68825 12.6856 7.06825 12.8936 7.48425C12.9706 7.44825 12.9536 7.01925 12.9096 6.95925C12.7416 6.59925 12.5096 6.24325 12.4366 6.10625C12.4096 6.05625 12.3186 5.91925 12.2116 5.76025C12.1916 5.53225 12.1696 5.34025 12.1556 5.28225C12.1206 5.04225 12.2536 5.30925 12.2356 5.17025C12.1916 4.93025 12.0596 4.76825 11.9036 4.54825C11.8536 4.47825 11.8536 4.46225 11.7766 4.56625C11.7316 4.67125 11.7316 4.75925 11.7466 4.84125C11.7246 4.81125 11.6996 4.77725 11.6636 4.73325L11.4086 4.51725C11.3736 4.49225 11.3056 4.45425 11.2546 4.45725ZM14.7306 4.49425C14.7156 4.49225 14.7006 4.49925 14.6806 4.52625C14.6456 4.55625 14.6086 4.61325 14.6106 4.68625C14.6176 4.81125 14.6406 4.94025 14.6486 5.06625L14.6586 5.11625C14.6446 5.10025 14.6326 5.08625 14.6256 5.08025C14.3786 4.82025 14.7386 5.03625 14.5776 4.83725C14.4426 4.68725 14.4026 4.64125 14.2876 4.55125C14.2276 4.51525 14.1936 4.44325 14.1746 4.56525C14.1666 4.67225 14.1586 4.79725 14.1646 4.88725C14.1646 4.93725 14.2176 5.03225 14.2626 5.08725C14.4266 5.29025 14.5946 5.50525 14.7626 5.72925C14.7986 6.18625 14.8076 6.60525 14.8426 7.06325C14.8386 7.25925 14.7786 7.51925 14.7226 7.54325C14.7226 7.54325 14.6346 7.59325 14.5766 7.53825C14.5336 7.52125 14.3646 7.25525 14.3646 7.25525C14.2776 7.17525 14.2196 7.19825 14.1586 7.25525C13.9886 7.41925 13.9106 7.72725 13.7956 7.93925C13.7656 7.98625 13.6826 8.02725 13.5896 7.93525C13.3526 7.61125 13.4896 7.15025 13.4616 7.26925C13.2516 7.50725 13.3436 7.90125 13.3916 7.98625C13.4616 8.12625 13.5176 8.21625 13.6516 8.28325C13.7766 8.37325 13.8716 8.31825 13.9256 8.25325C14.0496 8.12525 14.0516 7.79625 14.1096 7.73125C14.1496 7.61125 14.2526 7.63125 14.3026 7.68525C14.3526 7.75525 14.4086 7.80025 14.4796 7.83825C14.5956 7.94025 14.7336 7.95825 14.8696 7.86525C14.9626 7.81325 15.0236 7.74525 15.0776 7.61125C15.1376 7.45525 15.1076 6.63525 15.0946 6.17925L15.3546 6.55525C15.3906 6.95525 15.4076 7.35025 15.3946 7.72825C15.3866 7.80325 15.6576 7.50425 15.6546 7.36225C15.6546 7.23925 15.6566 7.12625 15.6546 7.02225C15.7876 7.23225 15.9146 7.44525 16.0346 7.66225C16.1096 7.62225 16.0846 7.19925 16.0376 7.14225C15.9116 6.93025 15.7496 6.70225 15.6246 6.52425C15.5996 6.30125 15.5666 6.03825 15.5506 5.95725C15.5276 5.83125 15.5036 5.64225 15.4676 5.49325C15.4576 5.43625 15.4276 5.25025 15.4376 5.23325C15.4516 5.19025 15.5076 5.23325 15.5346 5.18525C15.5746 5.14025 15.3926 4.66525 15.2996 4.53125C15.2666 4.47125 15.2056 4.49125 15.1316 4.59125C15.0616 4.65525 15.0876 4.80325 15.1136 4.94425C15.1816 5.30425 15.2436 5.66825 15.2916 6.03425C15.2016 5.89925 15.0916 5.73725 14.9836 5.58225L14.9696 5.51225C14.9696 5.50425 14.9556 5.21725 14.9426 5.14925C14.9396 5.12125 14.9326 5.11325 14.9626 5.11725C14.9926 5.14325 14.9966 5.14425 15.0156 5.15325C15.0476 5.15725 15.0756 5.10525 15.0556 5.05625L14.7656 4.52225C14.7556 4.50925 14.7416 4.49725 14.7256 4.49525L14.7306 4.49425ZM5.76061 4.50425C5.70561 4.50225 5.64761 4.53425 5.67061 4.59925C5.65661 4.63425 5.77461 4.75225 5.79561 4.81725C5.81261 4.86425 5.77561 5.01225 5.81561 5.02725C5.85061 5.04225 5.89961 4.92325 5.91761 4.81425C5.92761 4.75425 5.92061 4.54825 5.78061 4.50625C5.77361 4.50425 5.76661 4.50425 5.75861 4.50325L5.76061 4.50425ZM15.9806 4.50425C15.9676 4.50625 15.9526 4.52425 15.9306 4.57425C15.8756 4.66425 15.8566 4.82425 15.8786 4.96425C16.0086 5.85425 16.1086 6.71625 16.1286 7.50425C16.1166 7.58025 16.1126 7.62025 16.0786 7.71425C16.0006 7.81425 15.9146 7.93825 15.8336 7.99825C15.7536 8.05825 15.5816 8.11625 15.5256 8.16025C15.3456 8.26225 15.3456 8.38025 15.4896 8.38525C15.7376 8.35525 16.0316 8.33525 16.2336 8.03025C16.2876 7.94525 16.3516 7.71325 16.3536 7.57025C16.3736 6.74025 16.3436 5.92525 16.2186 5.32425C16.2106 5.26425 16.1846 5.13125 16.1946 5.11425C16.2096 5.07225 16.2906 5.11725 16.3196 5.07025C16.3626 5.02625 16.1096 4.70325 16.0216 4.56525C16.0036 4.53125 15.9916 4.50225 15.9776 4.50525L15.9806 4.50425ZM13.3776 4.51825C13.3676 4.52025 13.3536 4.53625 13.3256 4.57325C13.2556 4.79925 13.2316 4.98325 13.2586 5.12525C13.4386 6.05525 13.6186 6.90025 13.5906 7.78525C13.6746 7.78525 13.7726 7.59225 13.8146 7.40025C13.8376 7.13525 13.7986 6.97425 13.7926 6.82025C13.7856 6.66425 13.6166 5.40425 13.5826 5.28725C13.5406 5.06525 13.7466 5.25725 13.7246 5.12925C13.6526 4.96525 13.4746 4.72925 13.4206 4.58625C13.4006 4.54825 13.3966 4.51325 13.3806 4.51625L13.3776 4.51825ZM7.04361 4.53625C7.02361 4.54025 7.00061 4.55825 6.99361 4.58625C6.98861 4.60625 7.00161 4.63925 6.98361 4.64925C6.97361 4.65925 6.93561 4.65225 6.93761 4.59925C6.93761 4.58125 6.92461 4.56325 6.91761 4.55225C6.90961 4.54825 6.90461 4.54725 6.89061 4.54725C6.87361 4.54725 6.87361 4.55225 6.86461 4.56725C6.86061 4.58125 6.85461 4.59525 6.85461 4.61125C6.85261 4.63125 6.84461 4.63625 6.83161 4.63925C6.81561 4.63925 6.81861 4.64125 6.80661 4.63225C6.79661 4.62525 6.78861 4.62225 6.78861 4.60825C6.78861 4.59325 6.78461 4.56825 6.78061 4.56025C6.77361 4.55025 6.76261 4.54625 6.75061 4.54325C6.68461 4.54325 6.68061 4.62125 6.68361 4.64925C6.67861 4.65525 6.67661 4.78925 6.76661 4.82725C6.88661 4.88525 7.11461 4.86025 7.10661 4.66525C7.10661 4.64825 7.10161 4.59025 7.09961 4.57525C7.08761 4.54525 7.06461 4.53525 7.04261 4.53825L7.04361 4.53625ZM8.66961 4.53825C8.62761 4.54025 8.58961 4.55225 8.55961 4.56825C8.47961 4.64525 8.45961 4.76825 8.52361 4.84525C8.58361 4.87525 8.64661 4.93525 8.60561 4.97025C8.43161 5.15525 7.97861 5.46625 7.95561 5.52325V5.52925H7.95961V5.53125C7.98261 5.54625 8.26661 5.54625 8.29761 5.53125H8.29961C8.39761 5.49425 8.85961 4.96625 8.85961 4.96625C8.83561 4.94625 8.81361 4.93025 8.78961 4.90925C8.76361 4.88725 8.76661 4.86525 8.78961 4.84325C8.90361 4.77725 8.86761 4.63025 8.80761 4.56325C8.75761 4.54125 8.71161 4.53325 8.66961 4.53625V4.53825ZM12.9196 4.53825C12.9076 4.54125 12.8926 4.55825 12.8696 4.60825C12.8146 4.69825 12.7776 4.85325 12.7826 4.99825C12.9006 5.81825 12.9366 6.53525 13.0146 7.35525C13.0206 7.43525 13.0086 7.54925 12.9566 7.59525C12.7606 7.79925 12.4796 8.04925 12.1736 8.16525C12.1406 8.20225 12.2556 8.35925 12.4036 8.35925C12.6516 8.32925 12.8696 8.19125 13.0736 7.82425C13.1266 7.73925 13.2216 7.55625 13.2236 7.41425C13.2436 6.58225 13.1836 5.93425 13.0576 5.33425C13.0506 5.27425 13.0556 5.20425 13.0656 5.18825C13.0816 5.16825 13.1356 5.18825 13.1656 5.14125C13.2076 5.09725 13.0516 4.73825 12.9636 4.60125C12.9456 4.56625 12.9356 4.53825 12.9196 4.53925V4.53825ZM6.33561 4.56525C6.30161 4.56925 6.26961 4.59525 6.25361 4.63525C6.24861 4.76525 6.24761 4.89525 6.26361 5.01725C6.32361 5.23025 6.34061 5.41725 6.36961 5.63425C6.37961 5.92625 6.20161 5.76025 6.20961 5.61625C6.24961 5.42825 6.23961 5.13325 6.20361 5.05825C6.17361 4.98325 6.14161 4.96525 6.07161 4.97825C6.01661 4.97425 5.87361 5.12825 5.83361 5.38825C5.83361 5.38825 5.79961 5.52025 5.78561 5.63825C5.76561 5.77125 5.67761 5.86625 5.61561 5.62025C5.56261 5.44025 5.53061 5.00025 5.44161 5.10225C5.41561 5.44625 5.38561 6.05225 5.67761 6.11425C6.03161 6.14825 5.83561 5.51625 5.96361 5.40125C5.98861 5.34625 6.03361 5.34525 6.03661 5.41625V5.95325C6.03261 6.12725 6.14661 6.17925 6.23661 6.21525C6.32961 6.20825 6.39061 6.21125 6.42661 6.30125L6.47161 7.23125C6.47161 7.23125 6.68561 7.29125 6.69561 6.70825C6.70561 6.36525 6.62561 6.07825 6.67261 6.01125C6.67461 5.94525 6.75861 5.94125 6.81661 5.97425C6.90961 6.03925 6.95061 6.11925 7.09461 6.08725C7.31461 6.02725 7.44461 5.92125 7.44761 5.75325C7.43761 5.59325 7.41761 5.43325 7.34761 5.27325C7.35761 5.24525 7.30761 5.17025 7.31761 5.14125C7.35561 5.20125 7.41561 5.19725 7.42761 5.14125C7.39161 5.01825 7.33361 4.90125 7.23961 4.85125C7.16261 4.78125 7.04961 4.79625 7.00761 4.93825C6.98761 5.10225 7.06761 5.29625 7.18761 5.45525C7.21161 5.51725 7.24761 5.62025 7.23161 5.71325C7.16861 5.74925 7.10561 5.73325 7.05161 5.67825C7.05161 5.67825 6.87861 5.54825 6.87861 5.51825C6.92561 5.22325 6.88861 5.18825 6.86361 5.10825C6.84561 4.99425 6.79161 4.95825 6.74861 4.88025C6.70461 4.83325 6.64561 4.83325 6.61861 4.88025C6.54061 5.01325 6.57661 5.30025 6.63261 5.42725C6.67261 5.54525 6.73461 5.61925 6.70561 5.61925C6.68161 5.68425 6.63161 5.66925 6.59561 5.59225C6.54561 5.43225 6.53361 5.19625 6.53361 5.08925C6.51861 4.95725 6.50161 4.67425 6.41361 4.60225C6.39061 4.57025 6.36361 4.55925 6.33661 4.56225L6.33561 4.56525ZM7.57761 4.56525C7.56061 4.56925 7.54061 4.57925 7.51761 4.58525C7.44261 4.60825 7.37261 4.67325 7.39461 4.79925C7.48461 5.33925 7.54161 5.75225 7.63061 6.29225C7.64361 6.35625 7.59061 6.43925 7.52261 6.43225C7.40661 6.35225 7.37761 6.19225 7.17961 6.20025C7.03561 6.20025 6.87161 6.35825 6.85161 6.50825C6.82761 6.62825 6.81961 6.75825 6.85161 6.86225C6.95161 6.98225 7.07361 6.97025 7.17961 6.94225C7.26661 6.90725 7.33961 6.82225 7.36961 6.84225C7.38961 6.87525 7.36761 7.15625 6.95961 7.37225C6.70761 7.48625 6.50761 7.51225 6.39961 7.30825C6.33361 7.18025 6.40561 6.69225 6.24161 6.80425C5.75561 8.05625 7.37861 8.23025 7.55961 6.85625C7.57161 6.81625 7.60661 6.77825 7.63261 6.78825C7.64261 6.79325 7.65261 6.80825 7.65661 6.83625C7.61861 8.08025 6.40061 8.16625 6.19461 7.77425C6.14261 7.68225 6.12761 7.47625 6.12261 7.35425C6.11261 7.27925 6.09461 7.23625 6.07261 7.21925C6.02261 7.18225 5.95661 7.27925 5.94261 7.44625C5.92261 7.58125 5.92761 7.61825 5.92761 7.74825C5.99361 8.73125 7.56061 8.30825 7.81561 7.49825C7.94161 7.07825 7.81261 6.76125 7.85561 6.72225L7.85861 6.72025H7.86161L7.86661 6.71825C8.02261 6.88625 8.24061 6.73825 8.28861 6.68125C8.30861 6.65125 8.36061 6.63125 8.39661 6.67125C8.51661 6.75725 8.73061 6.71625 8.77461 6.56125C8.80061 6.41125 8.82261 6.25725 8.82761 6.09625C8.74761 6.12125 8.68361 6.13925 8.65761 6.16625C8.65161 6.17325 8.64761 6.18125 8.64561 6.18925L8.62561 6.32225C8.62561 6.32725 8.62361 6.33025 8.62161 6.33225C8.61861 6.33925 8.61161 6.34425 8.60761 6.34725C8.57961 6.36225 8.53061 6.35425 8.52761 6.31325C8.49061 6.14325 8.33561 6.12125 8.24161 6.38625C8.17861 6.43625 8.06161 6.44625 8.05161 6.37025C8.06661 6.19225 7.99461 6.16825 7.85161 6.25225L7.71361 5.21225C7.77361 5.20925 7.82761 5.25225 7.88361 5.18425C7.82361 5.00025 7.69861 4.62625 7.62761 4.59025H7.62561L7.61561 4.58025C7.61561 4.57825 7.61261 4.57725 7.61061 4.57625L7.60661 4.57025C7.60261 4.57025 7.59861 4.56825 7.59661 4.56725C7.58961 4.56525 7.58361 4.56525 7.57661 4.56525H7.57761ZM12.4196 4.56925C12.3576 4.56725 12.2896 4.60625 12.3156 4.68425C12.2996 4.72725 12.4486 4.87125 12.4726 4.94925C12.5156 5.06925 12.4396 5.18625 12.4846 5.20325C12.5266 5.22125 12.5846 5.07825 12.6046 4.94525C12.6306 4.83725 12.5546 4.61725 12.4446 4.57225L12.4196 4.57025V4.56925ZM8.64661 4.70025C8.67461 4.69825 8.70861 4.72425 8.72661 4.76025C8.74361 4.80025 8.73461 4.83725 8.70661 4.84425C8.67661 4.85125 8.63861 4.82625 8.62061 4.78625C8.60261 4.74625 8.61061 4.70925 8.64061 4.70225H8.64661V4.70025ZM15.6436 4.88225C15.5866 4.88025 15.5236 4.92225 15.5496 5.00725C15.5356 5.05325 15.6696 5.20925 15.6926 5.29525C15.7126 5.35525 15.6626 5.55125 15.7026 5.56925C15.7406 5.58925 15.7926 5.43325 15.8126 5.28925C15.8246 5.20925 15.7666 4.93425 15.6676 4.88525C15.6606 4.88325 15.6526 4.88125 15.6446 4.88125L15.6436 4.88225ZM11.7736 4.97825C11.7806 5.00125 11.7856 5.02425 11.7886 5.04825C11.8006 5.09825 11.8106 5.14825 11.8206 5.20025C11.7766 5.13825 11.7406 5.08825 11.7236 5.07025C11.6236 4.95025 11.7256 4.99225 11.7736 4.97825ZM12.6666 5.41625C12.6446 5.42025 12.6236 5.43925 12.6166 5.46925C12.6106 5.48725 12.6246 5.51925 12.6066 5.52925C12.5966 5.53925 12.5566 5.53325 12.5596 5.47925C12.5596 5.46125 12.5466 5.44225 12.5396 5.43225C12.5316 5.42725 12.5266 5.42525 12.5126 5.42525C12.4956 5.42525 12.4956 5.43025 12.4866 5.44525C12.4826 5.45925 12.4766 5.47325 12.4766 5.49025C12.4766 5.51025 12.4686 5.51625 12.4546 5.52025C12.4386 5.52025 12.4416 5.52025 12.4286 5.51325C12.4206 5.50325 12.4116 5.50125 12.4116 5.48725C12.4116 5.47225 12.4086 5.44925 12.4036 5.43925C12.3966 5.42925 12.3866 5.42625 12.3736 5.42225C12.3086 5.42225 12.3036 5.49825 12.3076 5.52625C12.3036 5.53225 12.3006 5.66825 12.3906 5.70625C12.5126 5.76325 12.7406 5.73625 12.7306 5.54225C12.7306 5.52525 12.7256 5.46725 12.7246 5.45225C12.7116 5.42225 12.6886 5.41225 12.6676 5.41525L12.6666 5.41625ZM8.59661 5.45625C8.58261 5.45625 8.56261 5.46025 8.53961 5.47425C8.43261 5.53225 8.39161 5.70425 8.45961 5.80425C8.51961 5.89425 8.61961 5.86125 8.63261 5.86125C8.73761 5.87525 8.79961 5.66525 8.79961 5.66525C8.79961 5.66525 8.80261 5.60525 8.67961 5.71725C8.62561 5.72725 8.61961 5.70725 8.60561 5.67725C8.59361 5.62425 8.59561 5.56725 8.62061 5.51425C8.63261 5.48125 8.62061 5.46025 8.59661 5.45825V5.45625ZM14.3496 5.48325C14.2896 5.48025 14.2266 5.51925 14.2096 5.60025C14.2096 5.64825 14.2316 5.67425 14.2276 5.71825C14.2226 5.74325 14.1976 5.75825 14.1356 5.73025C14.1456 5.72025 14.0956 5.65225 14.0956 5.65225C14.0486 5.62225 13.9856 5.65225 13.9436 5.68025C13.9206 5.72225 13.9036 5.79325 13.9296 5.86525C13.9976 5.99225 14.2326 6.20825 14.3446 6.21025C14.3466 6.09625 14.3576 5.94425 14.3646 5.85025C14.3666 5.81425 14.3746 5.77525 14.4096 5.76625C14.4436 5.75625 14.5026 5.80025 14.5026 5.76325C14.4966 5.69125 14.4826 5.58325 14.4426 5.53325C14.4206 5.50325 14.3856 5.48525 14.3506 5.48325H14.3496ZM9.58661 5.88025L9.58361 5.88325C9.58361 5.88325 9.58161 5.88325 9.58061 5.88525C9.56861 5.89525 9.55461 5.91525 9.52361 5.93525C9.47061 5.99525 9.46161 6.03825 9.46361 6.15825C9.46761 6.17125 9.56361 6.44125 9.64661 6.63025C9.70261 6.82725 9.75361 7.05325 9.71661 7.26625C9.58661 7.54825 9.32661 7.80125 9.07361 7.93925C8.94361 7.97925 8.83361 7.96525 8.80361 7.93725C8.72961 7.88725 8.72861 7.79725 8.73361 7.78325V7.78025C8.94561 7.63225 9.18861 7.51225 9.37861 7.11325C9.43461 6.96025 9.45261 6.86825 9.39661 6.63325C9.37461 6.54325 9.34661 6.47325 9.28661 6.40925H9.28861C9.32461 6.39225 9.41861 6.46125 9.43361 6.41925C9.41061 6.30525 9.33361 6.15425 9.24861 6.07625C9.17261 6.00625 9.08861 5.99925 9.02061 6.06225C8.94261 6.10625 8.92661 6.26225 8.96361 6.39825C9.00561 6.50025 9.11861 6.51825 9.19861 6.72525C9.20061 6.73925 9.22561 6.88025 9.18561 6.93825C9.15161 7.04025 8.73061 7.37225 8.70061 7.39225L8.69761 7.39425L8.69561 7.39625H8.69361H8.69161V7.39325C8.68961 7.38525 8.69161 7.36325 8.69161 7.33025C8.68861 7.26825 8.71461 7.12725 8.71161 7.10225V7.10025C8.57161 7.19025 8.52461 7.46525 8.49961 7.54725C8.14661 7.79025 7.74661 7.97125 7.51561 8.21725C7.39561 8.40725 8.34361 8.00325 8.45361 7.95425L8.45661 7.95725C8.47861 7.98025 8.47961 8.06025 8.54261 8.13325C8.64261 8.26625 8.85061 8.34825 9.05461 8.29725C9.39661 8.17425 9.59461 7.94125 9.79461 7.68225C9.82261 7.64225 9.86761 7.60825 9.90961 7.64025C10.0466 7.94825 10.4446 8.16825 10.9576 8.19025C11.0776 8.04625 11.0206 7.97525 10.9726 7.94525C10.9576 7.93525 10.7176 7.84125 10.6796 7.74825C10.6566 7.66225 10.7136 7.58525 10.8276 7.52825C11.1576 7.48825 11.4816 7.44325 11.7956 7.34225C11.7986 7.23625 11.8606 7.07925 11.9026 7.01025C11.9326 6.96325 11.9496 6.95825 11.9566 6.95225V6.95025H11.9586V6.94725V6.93725L11.9046 6.90525L10.8516 6.90125C10.8386 6.89625 10.8296 6.89125 10.8236 6.88625L10.8216 6.88325C10.8216 6.88325 10.8196 6.88325 10.8196 6.88125C10.8196 6.87925 10.8176 6.87925 10.8176 6.87925V6.88025V6.87825V6.87625V6.87425L10.8196 6.87125C10.8246 6.86525 10.8376 6.85825 10.8526 6.85125C11.1046 6.81825 11.5506 6.74525 11.5806 6.31625C11.5756 6.09225 11.4846 5.94625 11.2106 5.90625C11.0086 5.92125 10.8646 6.11625 10.8876 6.33025C10.8776 6.38725 10.9076 6.50025 10.8476 6.51325C10.4616 6.54925 10.0396 6.79125 10.0256 6.96525H10.0236H10.0216H10.0196C10.0196 6.96725 10.0176 6.96725 10.0166 6.96725H10.0126H10.0106H10.0066C9.98161 6.95925 9.94961 6.91725 9.95461 6.86025C9.93961 6.56025 9.84161 6.22025 9.68961 5.96025C9.63461 5.90525 9.60961 5.88325 9.59561 5.88025H9.59261H9.58961H9.58761H9.58661ZM10.5946 6.03825C10.5746 6.04225 10.5516 6.06025 10.5446 6.09025C10.5396 6.11025 10.5546 6.14225 10.5366 6.15225C10.5266 6.16225 10.4866 6.15625 10.4886 6.10225C10.4886 6.08525 10.4756 6.06625 10.4686 6.05525C10.4606 6.05025 10.4556 6.04925 10.4426 6.04925C10.4256 6.04925 10.4246 6.05325 10.4156 6.06725C10.4106 6.08125 10.4056 6.09725 10.4056 6.11225C10.4036 6.13225 10.3956 6.13825 10.3826 6.14025C10.3666 6.14025 10.3706 6.14325 10.3576 6.13525C10.3496 6.12725 10.3396 6.12325 10.3396 6.10925C10.3396 6.09425 10.3366 6.06925 10.3326 6.05925C10.3256 6.05225 10.3146 6.04925 10.3026 6.04525C10.2356 6.04525 10.2326 6.12025 10.2356 6.14925C10.2306 6.15425 10.2276 6.28925 10.3176 6.32725C10.4376 6.38525 10.7276 6.35125 10.6576 6.16425C10.6576 6.14725 10.6526 6.08925 10.6516 6.07425C10.6386 6.04425 10.6156 6.03425 10.5936 6.03725L10.5946 6.03825ZM14.6596 6.20525H14.6496C14.6496 6.20525 14.0876 6.60525 14.0746 6.61925C14.0186 6.66925 14.0466 6.84225 14.0746 6.82225C14.1146 6.83725 14.6796 6.45425 14.6686 6.40925C14.6936 6.41125 14.7056 6.21225 14.6586 6.20425L14.6596 6.20525ZM11.1256 6.26525C11.1476 6.26225 11.1776 6.27025 11.2056 6.28525C11.2486 6.31125 11.2756 6.34725 11.2706 6.37525V6.37925C11.2686 6.37925 11.2686 6.37925 11.2686 6.38125V6.38325C11.2686 6.38325 11.2666 6.38325 11.2666 6.38525C11.2666 6.38725 11.2636 6.38925 11.2616 6.39125C11.2416 6.41125 11.1956 6.40725 11.1516 6.38125C11.1096 6.35825 11.0846 6.32125 11.0866 6.29525V6.29225L11.0916 6.28225C11.0916 6.28225 11.0916 6.28025 11.0936 6.27925L11.0986 6.27325C11.1056 6.26825 11.1146 6.26325 11.1256 6.26325V6.26525ZM6.20761 6.36525C5.91761 6.37125 5.49061 6.74725 5.47961 6.95525L6.39961 6.51525C6.34961 6.43925 6.39661 6.37125 6.20761 6.36525ZM7.15061 6.49525C7.17861 6.49725 7.20861 6.51125 7.22461 6.55125C7.23861 6.58825 7.22461 6.62625 7.20761 6.64525V6.64825C7.19361 6.66425 7.15161 6.65825 7.12061 6.65825C7.08361 6.65625 7.06561 6.65025 7.04361 6.62025C7.03161 6.58525 7.06361 6.55225 7.07861 6.52825L7.08561 6.51825C7.09561 6.50825 7.11561 6.50025 7.13561 6.49825L7.14861 6.49625L7.15061 6.49525ZM14.5506 6.61225C14.4976 6.61825 14.4486 6.66725 14.4706 6.74525C14.4566 6.79125 14.5406 6.95225 14.5636 7.03725C14.5836 7.09725 14.5376 7.27025 14.5786 7.28725C14.6166 7.30725 14.7156 7.18725 14.7126 7.03325C14.7226 6.95325 14.6846 6.66325 14.5856 6.61525C14.5736 6.61225 14.5616 6.61125 14.5496 6.61225H14.5506ZM8.26661 6.89625C8.22061 6.89925 8.17961 6.92325 8.19861 6.98825C8.19561 7.03425 8.32861 7.09125 8.33561 7.19825C8.35361 7.24425 8.30561 7.38825 8.34561 7.40025C8.38161 7.41525 8.43161 7.30025 8.45061 7.19625C8.46061 7.13825 8.40461 6.93625 8.31061 6.89925C8.29561 6.89525 8.28061 6.89425 8.26561 6.89525L8.26661 6.89625ZM10.1466 7.15225H10.1586C10.2766 7.18425 10.4486 7.18825 10.5986 7.20225C10.7216 7.21225 10.7816 7.30625 10.6686 7.34725C10.5546 7.38525 10.4456 7.41725 10.4456 7.57925C10.4596 7.65925 10.4556 7.70125 10.4436 7.71925C10.4436 7.72225 10.4406 7.72425 10.4396 7.72525C10.4396 7.72525 10.4396 7.72725 10.4376 7.72725V7.72925H10.4346L10.4276 7.73225H10.4226C10.3956 7.73725 10.3566 7.71225 10.3276 7.69625C10.2576 7.64625 10.0626 7.52625 10.0346 7.26625C10.0306 7.20625 10.0746 7.15625 10.1446 7.15125L10.1466 7.15225ZM5.55261 7.35225C5.54561 7.35225 5.53261 7.37425 5.51261 7.39925C5.33861 7.67425 5.32261 8.08525 5.41861 8.20925C5.46861 8.26625 5.55261 8.29225 5.61461 8.27425C5.72461 8.22725 5.77161 8.00625 5.74461 7.92625C5.70961 7.86925 5.68061 7.86025 5.64461 7.90825C5.56761 8.06325 5.53461 7.95625 5.52961 7.86825C5.51761 7.70525 5.53361 7.55325 5.55161 7.43325C5.56161 7.37325 5.56161 7.35025 5.55161 7.35025L5.55261 7.35225ZM11.4496 7.71425C11.4366 7.71425 11.4236 7.71625 11.4096 7.72425C11.4066 7.72425 11.2856 7.80425 11.2466 7.86225C11.2226 7.88025 11.2266 7.89525 11.2326 7.92725C11.2506 7.97025 11.2826 7.95725 11.3206 7.93725C11.3706 7.92925 11.3936 7.96225 11.3906 8.02125C11.3676 8.09625 11.4006 8.12325 11.4006 8.12825C11.4006 8.13225 11.4476 8.17325 11.5036 8.14125C11.6206 8.09625 11.6936 8.05125 11.8586 8.01625C11.9016 8.01625 11.8986 7.90025 11.8306 7.89625C11.7406 7.90025 11.6606 7.90625 11.5706 7.97625C11.5156 7.98825 11.5066 7.95425 11.4936 7.92425C11.4796 7.85025 11.5256 7.79825 11.5156 7.74225C11.5176 7.74525 11.4876 7.71825 11.4486 7.71625L11.4496 7.71425ZM15.2256 7.85425L15.1456 7.86225C15.1096 7.86925 15.0976 7.88525 15.0906 7.92925C15.0936 7.99425 15.1336 7.99125 15.1756 8.01725C15.1996 8.04725 15.2156 8.07525 15.1736 8.12725C15.1336 8.16225 15.1066 8.18225 15.0666 8.21725C15.0496 8.24925 15.0366 8.29725 15.0946 8.31325C15.1996 8.34325 15.4426 8.18525 15.4426 8.18325C15.4826 8.15325 15.4686 8.09625 15.4656 8.09625C15.4416 8.07025 15.3896 8.08625 15.3556 8.08125C15.3386 8.08125 15.2856 8.07325 15.3096 8.02525C15.3316 7.99525 15.3396 7.97825 15.3546 7.94125C15.3696 7.90525 15.3546 7.88125 15.2966 7.86125C15.2666 7.85525 15.2466 7.85325 15.2236 7.85425H15.2256ZM13.7726 11.7142C14.0426 11.7272 14.2946 11.7172 14.5626 11.7302C14.6066 11.7662 14.5856 11.8503 14.5576 11.8643L14.5526 11.8663H14.5496H14.5456L14.3196 11.8602V11.8472C14.2976 11.7853 14.1476 11.7892 14.1116 11.8372V11.8403C14.1096 11.8403 14.1086 11.8432 14.1086 11.8442L14.1066 11.8492V11.8612C13.9866 11.8762 13.8816 11.8572 13.7636 11.8532C13.7286 11.8102 13.7336 11.7333 13.7736 11.7133L13.7726 11.7142Z" fill="white" stroke="white" stroke-width="2" mask="url(#path-3-inside-1_229_12556)"/>
<path d="M19.6666 1H2.66663C1.8382 1 1.16663 1.67157 1.16663 2.5V13.5C1.16663 14.3284 1.8382 15 2.66663 15H19.6666C20.4951 15 21.1666 14.3284 21.1666 13.5V2.5C21.1666 1.67157 20.4951 1 19.6666 1Z" stroke="black" stroke-opacity="0.05"/>
</g>
</g>
<defs>
<clipPath id="clip0_229_12556">
<rect width="21" height="15" fill="white" transform="translate(0.666626 0.5)"/>
</clipPath>
</defs>
</svg>
