<svg width="21" height="16" viewBox="0 0 21 16" fill="none" xmlns="http://www.w3.org/2000/svg">
<g clip-path="url(#clip0_229_12523)">
<mask id="mask0_229_12523" style="mask-type:alpha" maskUnits="userSpaceOnUse" x="0" y="0" width="21" height="16">
<path d="M2 1H19C19.8284 1 20.5 1.67157 20.5 2.5V13.5C20.5 14.3284 19.8284 15 19 15H2C1.17157 15 0.5 14.3284 0.5 13.5V2.5C0.5 1.67157 1.17157 1 2 1Z" fill="white" stroke="#555555"/>
</mask>
<g mask="url(#mask0_229_12523)">
<path d="M19 0.5H2C0.89543 0.5 0 1.39543 0 2.5V13.5C0 14.6046 0.89543 15.5 2 15.5H19C20.1046 15.5 21 14.6046 21 13.5V2.5C21 1.39543 20.1046 0.5 19 0.5Z" fill="white"/>
<path d="M0.5 1H8.5V7H0.5V1Z" fill="#444379" stroke="#364375"/>
<mask id="path-4-inside-1_229_12523" fill="white">
<path fill-rule="evenodd" clip-rule="evenodd" d="M1 1.5V2.5H2V1.5H1ZM3 1.5V2.5H4V1.5H3ZM5 1.5V2.5H6V1.5H5ZM7 1.5V2.5H8V1.5H7ZM6 2.5V3.5H7V2.5H6ZM4 2.5V3.5H5V2.5H4ZM2 2.5V3.5H3V2.5H2ZM1 3.5V4.5H2V3.5H1ZM3 3.5V4.5H4V3.5H3ZM5 3.5V4.5H6V3.5H5ZM7 3.5V4.5H8V3.5H7ZM1 5.5V6.5H2V5.5H1ZM3 5.5V6.5H4V5.5H3ZM5 5.5V6.5H6V5.5H5ZM7 5.5V6.5H8V5.5H7ZM6 4.5V5.5H7V4.5H6ZM4 4.5V5.5H5V4.5H4ZM2 4.5V5.5H3V4.5H2Z"/>
</mask>
<path d="M1 1.5V0.5H0V1.5H1ZM1 2.5H0V3.5H1V2.5ZM2 2.5V3.5H3V2.5H2ZM2 1.5H3V0.5H2V1.5ZM3 1.5V0.5H2V1.5H3ZM3 2.5H2V3.5H3V2.5ZM4 2.5V3.5H5V2.5H4ZM4 1.5H5V0.5H4V1.5ZM5 1.5V0.5H4V1.5H5ZM5 2.5H4V3.5H5V2.5ZM6 2.5V3.5H7V2.5H6ZM6 1.5H7V0.5H6V1.5ZM7 1.5V0.5H6V1.5H7ZM7 2.5H6V3.5H7V2.5ZM8 2.5V3.5H9V2.5H8ZM8 1.5H9V0.5H8V1.5ZM6 2.5V1.5H5V2.5H6ZM6 3.5H5V4.5H6V3.5ZM7 3.5V4.5H8V3.5H7ZM7 2.5H8V1.5H7V2.5ZM4 2.5V1.5H3V2.5H4ZM4 3.5H3V4.5H4V3.5ZM5 3.5V4.5H6V3.5H5ZM5 2.5H6V1.5H5V2.5ZM2 2.5V1.5H1V2.5H2ZM2 3.5H1V4.5H2V3.5ZM3 3.5V4.5H4V3.5H3ZM3 2.5H4V1.5H3V2.5ZM1 3.5V2.5H0V3.5H1ZM1 4.5H0V5.5H1V4.5ZM2 4.5V5.5H3V4.5H2ZM2 3.5H3V2.5H2V3.5ZM3 3.5V2.5H2V3.5H3ZM3 4.5H2V5.5H3V4.5ZM4 4.5V5.5H5V4.5H4ZM4 3.5H5V2.5H4V3.5ZM5 3.5V2.5H4V3.5H5ZM5 4.5H4V5.5H5V4.5ZM6 4.5V5.5H7V4.5H6ZM6 3.5H7V2.5H6V3.5ZM7 3.5V2.5H6V3.5H7ZM7 4.5H6V5.5H7V4.5ZM8 4.5V5.5H9V4.5H8ZM8 3.5H9V2.5H8V3.5ZM1 5.5V4.5H0V5.5H1ZM1 6.5H0V7.5H1V6.5ZM2 6.5V7.5H3V6.5H2ZM2 5.5H3V4.5H2V5.5ZM3 5.5V4.5H2V5.5H3ZM3 6.5H2V7.5H3V6.5ZM4 6.5V7.5H5V6.5H4ZM4 5.5H5V4.5H4V5.5ZM5 5.5V4.5H4V5.5H5ZM5 6.5H4V7.5H5V6.5ZM6 6.5V7.5H7V6.5H6ZM6 5.5H7V4.5H6V5.5ZM7 5.5V4.5H6V5.5H7ZM7 6.5H6V7.5H7V6.5ZM8 6.5V7.5H9V6.5H8ZM8 5.5H9V4.5H8V5.5ZM6 4.5V3.5H5V4.5H6ZM6 5.5H5V6.5H6V5.5ZM7 5.5V6.5H8V5.5H7ZM7 4.5H8V3.5H7V4.5ZM4 4.5V3.5H3V4.5H4ZM4 5.5H3V6.5H4V5.5ZM5 5.5V6.5H6V5.5H5ZM5 4.5H6V3.5H5V4.5ZM2 4.5V3.5H1V4.5H2ZM2 5.5H1V6.5H2V5.5ZM3 5.5V6.5H4V5.5H3ZM3 4.5H4V3.5H3V4.5ZM0 1.5V2.5H2V1.5H0ZM1 3.5H2V1.5H1V3.5ZM3 2.5V1.5H1V2.5H3ZM2 0.5H1V2.5H2V0.5ZM2 1.5V2.5H4V1.5H2ZM3 3.5H4V1.5H3V3.5ZM5 2.5V1.5H3V2.5H5ZM4 0.5H3V2.5H4V0.5ZM4 1.5V2.5H6V1.5H4ZM5 3.5H6V1.5H5V3.5ZM7 2.5V1.5H5V2.5H7ZM6 0.5H5V2.5H6V0.5ZM6 1.5V2.5H8V1.5H6ZM7 3.5H8V1.5H7V3.5ZM9 2.5V1.5H7V2.5H9ZM8 0.5H7V2.5H8V0.5ZM5 2.5V3.5H7V2.5H5ZM6 4.5H7V2.5H6V4.5ZM8 3.5V2.5H6V3.5H8ZM7 1.5H6V3.5H7V1.5ZM3 2.5V3.5H5V2.5H3ZM4 4.5H5V2.5H4V4.5ZM6 3.5V2.5H4V3.5H6ZM5 1.5H4V3.5H5V1.5ZM1 2.5V3.5H3V2.5H1ZM2 4.5H3V2.5H2V4.5ZM4 3.5V2.5H2V3.5H4ZM3 1.5H2V3.5H3V1.5ZM0 3.5V4.5H2V3.5H0ZM1 5.5H2V3.5H1V5.5ZM3 4.5V3.5H1V4.5H3ZM2 2.5H1V4.5H2V2.5ZM2 3.5V4.5H4V3.5H2ZM3 5.5H4V3.5H3V5.5ZM5 4.5V3.5H3V4.5H5ZM4 2.5H3V4.5H4V2.5ZM4 3.5V4.5H6V3.5H4ZM5 5.5H6V3.5H5V5.5ZM7 4.5V3.5H5V4.5H7ZM6 2.5H5V4.5H6V2.5ZM6 3.5V4.5H8V3.5H6ZM7 5.5H8V3.5H7V5.5ZM9 4.5V3.5H7V4.5H9ZM8 2.5H7V4.5H8V2.5ZM0 5.5V6.5H2V5.5H0ZM1 7.5H2V5.5H1V7.5ZM3 6.5V5.5H1V6.5H3ZM2 4.5H1V6.5H2V4.5ZM2 5.5V6.5H4V5.5H2ZM3 7.5H4V5.5H3V7.5ZM5 6.5V5.5H3V6.5H5ZM4 4.5H3V6.5H4V4.5ZM4 5.5V6.5H6V5.5H4ZM5 7.5H6V5.5H5V7.5ZM7 6.5V5.5H5V6.5H7ZM6 4.5H5V6.5H6V4.5ZM6 5.5V6.5H8V5.5H6ZM7 7.5H8V5.5H7V7.5ZM9 6.5V5.5H7V6.5H9ZM8 4.5H7V6.5H8V4.5ZM5 4.5V5.5H7V4.5H5ZM6 6.5H7V4.5H6V6.5ZM8 5.5V4.5H6V5.5H8ZM7 3.5H6V5.5H7V3.5ZM3 4.5V5.5H5V4.5H3ZM4 6.5H5V4.5H4V6.5ZM6 5.5V4.5H4V5.5H6ZM5 3.5H4V5.5H5V3.5ZM1 4.5V5.5H3V4.5H1ZM2 6.5H3V4.5H2V6.5ZM4 5.5V4.5H2V5.5H4ZM3 3.5H2V5.5H3V3.5Z" fill="#9DAADD" mask="url(#path-4-inside-1_229_12523)"/>
<path fill-rule="evenodd" clip-rule="evenodd" d="M9 0.5V1.5H21V0.5H9ZM9 2.5V3.5H21V2.5H9ZM9 4.5V5.5H21V4.5H9ZM9 6.5V7.5H21V6.5H9ZM0 8.5V9.5H21V8.5H0ZM0 10.5V11.5H21V10.5H0ZM0 12.5V13.5H21V12.5H0ZM0 14.5V15.5H21V14.5H0Z" fill="#ED4C49"/>
<path d="M19 1H2C1.17157 1 0.5 1.67157 0.5 2.5V13.5C0.5 14.3284 1.17157 15 2 15H19C19.8284 15 20.5 14.3284 20.5 13.5V2.5C20.5 1.67157 19.8284 1 19 1Z" stroke="black" stroke-opacity="0.1"/>
</g>
</g>
<defs>
<clipPath id="clip0_229_12523">
<rect width="21" height="15" fill="white" transform="translate(0 0.5)"/>
</clipPath>
</defs>
</svg>
